<svg width="100" height="100" viewBox="0 0 128 128" fill="none" xmlns="http://www.w3.org/2000/svg">
              <path d="M95.3511 28.4445L89.6388 92.437L63.9616 99.5556L38.3552 92.4471L32.6489 28.4445H95.3511Z" fill="#264DE4"></path>
              <path d="M84.7484 88.3622L89.6299 33.6776H64V94.1145L84.7484 88.3622Z" fill="#2965F1"></path>
              <path d="M45.7305 57.4153L46.434 65.2649H64V57.4153H45.7305Z" fill="#EBEBEB"></path>
              <path d="M64 41.5273H63.9728H44.3168L45.0303 49.377H64V41.5273Z" fill="#EBEBEB"></path>
              <path d="M64 85.9684V77.8015L63.9656 77.8106L55.2233 75.45L54.6645 69.1896H50.4165H46.7847L47.8844 81.5147L63.9638 85.9784L64 85.9684Z" fill="#EBEBEB"></path>
              <path d="M73.6389 65.2648L72.7277 75.4452L63.9729 77.8082V85.9747L80.0651 81.5148L80.1832 80.1886L82.0278 59.523L82.2193 57.4152L83.6364 41.5273H63.9729V49.377H75.0339L74.3196 57.4152H63.9729V65.2648H73.6389Z" fill="white"></path>
            </svg>