<svg width="100" height="100" viewBox="0 0 128 128" fill="none" xmlns="http://www.w3.org/2000/svg">
              <path d="M98.2143 60.8317L67.1665 29.7856C65.3796 27.9975 62.4796 27.9975 60.6904 29.7856L54.2432 36.2328L62.4218 44.4114C64.3224 43.7692 66.5018 44.2 68.0168 45.715C69.5391 47.2397 69.9668 49.4378 69.3091 51.3444L77.191 59.2267C79.0979 58.5697 81.2982 58.9947 82.8213 60.5203C84.9499 62.6481 84.9499 66.0967 82.8213 68.2258C80.6921 70.3553 77.2435 70.3553 75.1132 68.2258C73.5121 66.6231 73.1166 64.2717 73.9271 62.2992L66.5766 54.9486L66.5757 74.2922C67.1086 74.5557 67.5952 74.9037 68.0168 75.3228C70.1454 77.4506 70.1454 80.8994 68.0168 83.0303C65.8877 85.1586 62.4374 85.1586 60.3113 83.0303C58.1827 80.8994 58.1827 77.4508 60.3113 75.3231C60.8214 74.8127 61.4276 74.4085 62.0949 74.1339V54.61C61.4266 54.3372 60.8201 53.9328 60.3113 53.4208C58.6985 51.8103 58.3107 49.4439 59.1371 47.4636L51.0749 39.4006L29.786 60.6881C27.9971 62.4778 27.9971 65.3781 29.786 67.1664L60.8343 98.2131C62.6218 100.001 65.5213 100.001 67.311 98.2131L98.2141 67.3106C100.002 65.5217 100.002 62.6197 98.2141 60.8317" fill="#DE4C36"></path>
            </svg>