<svg width="100" height="100" viewBox="0 0 128 128" fill="none" xmlns="http://www.w3.org/2000/svg">
              <path d="M99.5556 28.4445H28.4445V99.5556H99.5556V28.4445Z" fill="#F7DF1E"></path>
              <path d="M76.213 84.0003C77.6454 86.3391 79.509 88.0582 82.8049 88.0582C85.5737 88.0582 87.3425 86.6743 87.3425 84.7622C87.3425 82.4708 85.5252 81.6593 82.4776 80.3262L80.807 79.6095C75.985 77.5552 72.7816 74.9816 72.7816 69.541C72.7816 64.5294 76.6002 60.7142 82.5679 60.7142C86.8165 60.7142 89.8709 62.1929 92.0719 66.0645L86.8684 69.4056C85.7227 67.3513 84.4867 66.542 82.5679 66.542C80.6106 66.542 79.3701 67.7836 79.3701 69.4056C79.3701 71.4102 80.6118 72.2218 83.4788 73.4634L85.1493 74.1791C90.8269 76.6138 94.0326 79.0959 94.0326 84.6764C94.0326 90.6926 89.3065 93.9886 82.9596 93.9886C76.7537 93.9886 72.7444 91.0313 70.7826 87.1552L76.213 84.0003ZM52.6075 84.5793C53.6573 86.4418 54.6122 88.0164 56.9081 88.0164C59.1035 88.0164 60.4884 87.1574 60.4884 83.8174V61.0957H67.1706V83.9077C67.1706 90.827 63.1139 93.9762 57.1925 93.9762C51.8422 93.9762 48.7438 91.2074 47.1681 87.8725L52.6075 84.5793Z" fill="black"></path>
            </svg>