<svg width="128" height="128" viewBox="0 0 128 128" fill="none" xmlns="http://www.w3.org/2000/svg">
              <path d="M45.2236 53.7882H58.6358V54.8491H46.4531V62.8337H57.9093V63.8946H46.4531V72.661H58.7756V73.7219H45.2236V53.7882ZM59.8374 53.7882H61.2624L67.5773 62.5545L74.0319 53.7882L82.8113 42.6528L68.3876 63.4758L75.8202 73.7219H74.3393L67.5773 64.3971L60.7874 73.7219H59.3344L66.8229 63.4758L59.8374 53.7882ZM76.3511 54.8491V53.7882H91.6355V54.8491H84.594V73.7219H83.3646V54.8491H76.3511Z" fill="black"></path>
              <path d="M28.4445 53.7881H29.9813L51.1731 85.3472L42.4155 73.7218L29.7298 55.2957L29.6739 73.7218H28.4445V53.7881Z" fill="black"></path>
              <path d="M91.5116 72.3408C91.7658 72.3408 91.9512 72.1471 91.9512 71.8968C91.9512 71.6465 91.7658 71.4528 91.5116 71.4528C91.2604 71.4528 91.072 71.6465 91.072 71.8968C91.072 72.1471 91.2604 72.3408 91.5116 72.3408ZM92.7197 71.1727C92.7197 71.9117 93.2549 72.3945 94.0354 72.3945C94.8667 72.3945 95.3691 71.8968 95.3691 71.0327V67.9903H94.6993V71.0297C94.6993 71.5094 94.457 71.7657 94.0294 71.7657C93.6467 71.7657 93.3865 71.5273 93.3775 71.1727H92.7197ZM96.2453 71.134C96.2931 71.9028 96.936 72.3945 97.8929 72.3945C98.9156 72.3945 99.5555 71.8789 99.5555 71.0565C99.5555 70.4099 99.1907 70.0523 98.3056 69.8467L97.8301 69.7305C97.2679 69.5994 97.0407 69.4236 97.0407 69.1167C97.0407 68.7293 97.3935 68.476 97.9228 68.476C98.4252 68.476 98.7721 68.7233 98.8349 69.1196H99.4867C99.4479 68.3955 98.8079 67.886 97.9318 67.886C96.9898 67.886 96.3619 68.3955 96.3619 69.1613C96.3619 69.7931 96.7177 70.1685 97.4982 70.3503L98.0544 70.4844C98.6255 70.6185 98.8767 70.8152 98.8767 71.1429C98.8767 71.5243 98.482 71.8015 97.9438 71.8015C97.3666 71.8015 96.9659 71.5422 96.9091 71.134H96.2453Z" fill="black"></path>
            </svg>