<svg width="100" height="100" viewBox="0 0 128 128" fill="none" xmlns="http://www.w3.org/2000/svg">
              <path d="M61.0885 29.2031C62.8517 28.1939 65.1483 28.1893 66.91 29.2031C75.773 34.2112 84.6388 39.2114 93.5003 44.2225C95.167 45.1613 96.2819 47.0162 96.2649 48.9367V79.0671C96.2773 81.0672 95.0523 82.9664 93.2939 83.884C84.46 88.8644 75.6307 93.851 66.7983 98.8314C64.9986 99.8604 62.6559 99.7812 60.9124 98.6678C58.2641 97.1325 55.6111 95.6048 52.9625 94.071C52.4212 93.7484 51.8111 93.4916 51.4289 92.9668C51.7668 92.5114 52.3708 92.4547 52.8617 92.2559C53.9672 91.9044 54.9825 91.3401 55.9981 90.7925C56.2549 90.6168 56.5684 90.6841 56.8146 90.8414C59.0793 92.1399 61.324 93.4761 63.5963 94.7622C64.081 95.0421 64.5719 94.6705 64.9862 94.4395C73.655 89.5401 82.3343 84.6592 91.0016 79.7583C91.3227 79.6038 91.5002 79.2629 91.4742 78.9111C91.4802 68.9718 91.4757 59.0306 91.4772 49.0912C91.5139 48.6921 91.2829 48.3251 90.922 48.1618C82.1188 43.2041 73.3201 38.2388 64.5184 33.2799C64.3659 33.1751 64.1853 33.1188 64.0002 33.1186C63.8152 33.1183 63.6344 33.174 63.4816 33.2784C54.6799 38.2388 45.8827 43.2087 37.081 48.1661C36.7214 48.3297 36.48 48.6906 36.5228 49.0912C36.5243 59.0306 36.5228 68.9718 36.5228 78.9126C36.5075 79.0843 36.5452 79.2565 36.6308 79.4061C36.7164 79.5556 36.8458 79.6754 37.0015 79.7492C39.3502 81.0811 41.7021 82.4036 44.0524 83.731C45.3764 84.4437 47.0021 84.8672 48.4609 84.3211C49.7483 83.8594 50.6507 82.5457 50.6261 81.1789C50.6383 71.2975 50.62 61.4146 50.6352 51.5347C50.6031 51.0961 51.0192 50.7337 51.4457 50.7749C52.5742 50.7673 53.7043 50.7597 54.8328 50.778C55.3039 50.7673 55.6281 51.2397 55.5698 51.6816C55.5653 61.6256 55.582 71.5697 55.5622 81.5137C55.5653 84.1638 54.4765 87.0475 52.0251 88.3442C49.0052 89.9086 45.2726 89.5769 42.2891 88.0768C39.7063 86.7877 37.2416 85.2663 34.7046 83.8852C32.9416 82.9727 31.7227 81.0659 31.7351 79.0674V48.9367C31.7166 46.9765 32.8758 45.0879 34.5944 44.1627C43.4268 39.1782 52.2576 34.1899 61.0885 29.2031Z" fill="#8CC84B"></path>
              <path d="M68.7938 50.0746C72.6459 49.8266 76.7699 49.9277 80.2363 51.8254C82.9201 53.2797 84.4081 56.3317 84.4554 59.3134C84.3805 59.7156 83.96 59.9375 83.5761 59.9099C82.4584 59.9084 81.3405 59.9251 80.2229 59.9023C79.7488 59.9205 79.4732 59.4834 79.4137 59.0642C79.0925 57.6376 78.3145 56.2246 76.9717 55.5365C74.9104 54.5044 72.5203 54.5564 70.2726 54.5779C68.6317 54.665 66.8672 54.8071 65.477 55.772C64.4098 56.503 64.0856 57.9785 64.4665 59.1668C64.8256 60.02 65.8106 60.2953 66.6165 60.5491C71.2588 61.7633 76.1782 61.6425 80.7319 63.2403C82.6172 63.8917 84.4615 65.158 85.1068 67.132C85.951 69.7776 85.5809 72.9398 83.6987 75.0637C82.1722 76.8115 79.9491 77.7627 77.7318 78.2794C74.782 78.9371 71.7208 78.9539 68.7251 78.6618C65.9083 78.3407 62.9771 77.6007 60.8025 75.6814C58.9431 74.0669 58.0348 71.5512 58.125 69.1231C58.1465 68.7131 58.5548 68.4272 58.9476 68.4608C60.0731 68.4517 61.1986 68.4487 62.3241 68.4624C62.7737 68.4302 63.107 68.8187 63.13 69.2424C63.3377 70.6017 63.8485 72.0283 65.0338 72.8342C67.3213 74.31 70.1916 74.2089 72.8108 74.2502C74.9808 74.154 77.4167 74.1249 79.1875 72.6906C80.1218 71.8726 80.3986 70.5039 80.1461 69.3265C79.8726 68.3324 78.8327 67.8692 77.9397 67.5663C73.3569 66.1166 68.3825 66.6427 63.844 65.0033C62.0015 64.3521 60.2198 63.121 59.5119 61.2281C58.5242 58.5491 58.9767 55.2354 61.0563 53.1832C63.0839 51.1418 66.0109 50.3557 68.7938 50.0743V50.0746Z" fill="#8CC84B"></path>
            </svg>