<svg width="100" height="100" viewBox="0 0 128 128" fill="none" xmlns="http://www.w3.org/2000/svg">
              <path d="M64 70.2695C67.4625 70.2695 70.2694 67.4626 70.2694 64.0002C70.2694 60.5377 67.4625 57.7308 64 57.7308C60.5376 57.7308 57.7307 60.5377 57.7307 64.0002C57.7307 67.4626 60.5376 70.2695 64 70.2695Z" fill="#61DAFB"></path>
              <path d="M64 76.8446C82.579 76.8446 97.6403 71.094 97.6403 64.0002C97.6403 56.9064 82.579 51.1557 64 51.1557C45.421 51.1557 30.3597 56.9064 30.3597 64.0002C30.3597 71.094 45.421 76.8446 64 76.8446Z" stroke="#61DAFB" stroke-width="2"></path>
              <path d="M52.8763 70.4224C62.1658 86.5123 74.6767 96.6804 80.8201 93.1335C86.9635 89.5866 84.4131 73.6678 75.1236 57.5779C65.8341 41.488 53.3232 31.3199 47.1798 34.8668C41.0364 38.4137 43.5868 54.3325 52.8763 70.4224Z" stroke="#61DAFB" stroke-width="2"></path>
              <path d="M52.8763 57.5779C43.5868 73.6677 41.0364 89.5865 47.1798 93.1334C53.3232 96.6803 65.8341 86.5122 75.1236 70.4223C84.4131 54.3324 86.9635 38.4137 80.8201 34.8668C74.6767 31.3199 62.1658 41.488 52.8763 57.5779Z" stroke="#61DAFB" stroke-width="2"></path>
            </svg>