<svg width="100" height="100" viewBox="0 0 128 128" fill="none" xmlns="http://www.w3.org/2000/svg">
              <path d="M64 42.6725C54.5182 42.6725 48.5925 47.412 46.2218 56.8902C49.7778 52.1507 53.926 50.374 58.6665 51.5585C61.3715 52.2343 63.3046 54.1968 65.445 56.3683C68.9308 59.9056 72.9651 63.9996 81.7782 63.9996C91.2591 63.9996 97.1858 59.26 99.5556 49.7809C96.0005 54.5205 91.8522 56.298 87.1109 55.1136C84.4068 54.4378 82.4736 52.4753 80.3332 50.3038C76.8475 46.7665 72.8122 42.6725 64 42.6725ZM46.2218 63.9996C36.7409 63.9996 30.8142 68.7391 28.4445 78.2182C31.9996 73.4786 36.1478 71.7011 40.8891 72.8864C43.5933 73.5631 45.5264 75.5247 47.6668 77.6953C51.1525 81.2327 55.1878 85.3275 64 85.3275C73.4818 85.3275 79.4076 80.588 81.7782 71.1089C78.2222 75.8484 74.074 77.626 69.3336 76.4406C66.6286 75.7657 64.6954 73.8023 62.555 71.6317C59.0693 68.0944 55.0349 63.9996 46.2218 63.9996Z" fill="#06B6D4"></path>
            </svg>