<svg width="100" height="100" viewBox="0 0 128 128" fill="none" xmlns="http://www.w3.org/2000/svg">
              <path d="M28.4445 28.4445H99.5556V99.5556H28.4445V28.4445Z" fill="#017ACB"></path>
              <path d="M62.589 54.7778H66.0001V60.6667H56.7778V86.8667L56.5334 86.9334C56.2001 87.0223 51.8112 87.0223 50.8667 86.9223L50.1112 86.8556V60.6667H40.8889V54.7778L43.8111 54.7445C45.4111 54.7223 49.5223 54.7223 52.9445 54.7445C56.3667 54.7667 60.7001 54.7778 62.589 54.7778ZM88.6223 84.0889C87.2668 85.5223 85.8112 86.3223 83.389 86.9778C82.3334 87.2667 82.1557 87.2778 79.7779 87.2667C77.4001 87.2556 77.2112 87.2556 76.0556 86.9556C73.0667 86.1889 70.6556 84.6889 69.0112 82.5667C68.5445 81.9667 67.7779 80.7223 67.7779 80.5667C67.7779 80.5223 67.889 80.4223 68.0334 80.3556C68.1778 80.2889 68.4779 80.1 68.7223 79.9556C68.9667 79.8111 69.4112 79.5445 69.7112 79.3889C70.0112 79.2334 70.8779 78.7223 71.6334 78.2667C72.389 77.8111 73.0779 77.4445 73.1556 77.4445C73.2334 77.4445 73.3779 77.6 73.489 77.7889C74.1556 78.9111 75.7112 80.3445 76.8112 80.8334C77.489 81.1223 78.989 81.4445 79.7112 81.4445C80.3779 81.4445 81.6001 81.1556 82.2556 80.8556C82.9557 80.5334 83.3112 80.2111 83.7334 79.5667C84.0223 79.1111 84.0557 78.9889 84.0445 78.1223C84.0445 77.3223 84.0001 77.1 83.7779 76.7334C83.1557 75.7111 82.3112 75.1778 78.889 73.6667C75.3556 72.1 73.7667 71.1667 72.4779 69.9111C71.5223 68.9778 71.3334 68.7223 70.7334 67.5556C69.9556 66.0556 69.8556 65.5667 69.8445 63.3334C69.8334 61.7667 69.8667 61.2556 70.0334 60.7223C70.2667 59.9223 71.0223 58.3778 71.3667 57.9889C72.0779 57.1556 72.3334 56.9 72.8334 56.4889C74.3445 55.2445 76.7001 54.4223 78.9556 54.3445C79.2112 54.3445 80.0556 54.3889 80.8445 54.4445C83.1112 54.6334 84.6557 55.1889 86.1445 56.3778C87.2668 57.2667 88.9668 59.3556 88.8001 59.6334C88.689 59.8 84.2557 62.7556 83.9668 62.8445C83.789 62.9 83.6668 62.8334 83.4223 62.5445C81.9112 60.7334 81.3001 60.3445 79.8334 60.2556C78.789 60.1889 78.2334 60.3111 77.5334 60.7778C76.8001 61.2667 76.4445 62.0111 76.4445 63.0445C76.4556 64.5556 77.0334 65.2667 79.1668 66.3223C80.5445 67 81.7223 67.5556 81.8112 67.5556C81.9445 67.5556 84.8001 68.9778 85.5445 69.4223C89.0112 71.4556 90.4223 73.5445 90.789 77.1445C91.0557 79.8556 90.289 82.3334 88.6223 84.0889Z" fill="white"></path>
            </svg>